<svg width="20" height="22" viewBox="0 0 20 22" fill="none" xmlns="http://www.w3.org/2000/svg">
<path d="M14.374 21.5557C13.7284 21.5557 13.0883 21.4358 12.4623 21.197C9.70467 20.1452 7.145 18.432 5.05992 16.2428C2.97484 14.0535 1.34325 11.3658 0.341533 8.47029C0.0196307 7.53976 -0.0753659 6.57922 0.0592777 5.61523C0.185406 4.71226 0.518519 3.83567 1.02264 3.0802C1.52899 2.3214 2.20404 1.69027 2.9748 1.25507C3.79672 0.791002 4.69384 0.555664 5.6413 0.555664C5.93598 0.555664 6.19066 0.771849 6.25241 1.07437L7.23339 5.88116C7.27781 6.09882 7.2141 6.3253 7.06422 6.48271L5.38799 8.2427C6.96926 11.5438 9.53511 14.2379 12.679 15.8982L14.3552 14.1382C14.5051 13.9808 14.7208 13.914 14.9281 13.9605L19.506 14.9906C19.7941 15.0554 20 15.3228 20 15.6322C20 16.6271 19.7759 17.5691 19.3339 18.4321C18.9194 19.2414 18.3183 19.9502 17.5956 20.4818C16.8762 21.0112 16.0413 21.3609 15.1813 21.4934C14.9118 21.5349 14.6424 21.5556 14.374 21.5557V21.5557ZM5.14195 1.89682C3.89219 2.04168 2.78293 2.72949 2.04631 3.83338C1.21799 5.07466 1.02483 6.60141 1.51637 8.02221C3.44224 13.5889 7.58744 17.9413 12.889 19.9635C14.2422 20.4796 15.6962 20.2768 16.8784 19.407C17.9298 18.6336 18.5848 17.4689 18.7228 16.1566L14.9987 15.3187L13.2481 17.1568C13.0618 17.3524 12.7788 17.4044 12.5404 17.2867C8.8222 15.4526 5.81247 12.2924 4.06566 8.38826C3.95367 8.13795 4.00312 7.84077 4.1894 7.64521L5.93996 5.80713L5.14195 1.89682Z" fill="#163561"/>
</svg>
