<svg width="16" height="26" viewBox="0 0 16 26" fill="none" xmlns="http://www.w3.org/2000/svg">
<path d="M7.96051 5C5.77668 5 4 6.5701 4 8.5C4 10.4176 5.74777 12 7.96051 12C10.2005 12 11.921 10.3965 11.921 8.5C11.921 6.5701 10.1443 5 7.96051 5ZM7.96051 10.8411C6.49701 10.8411 5.31137 9.78983 5.31137 8.5C5.31137 7.2134 6.50463 6.15889 7.96051 6.15889C9.41639 6.15889 10.6053 7.2134 10.6053 8.5C10.6053 9.77101 9.4472 10.8411 7.96051 10.8411Z" fill="#163561"/>
<path d="M7.92108 0C3.5534 0 0 4.03041 0 8.98441C0 10.6582 0.408772 12.2917 1.1824 13.7088L7.4702 25.2017C7.59064 25.4219 7.80284 25.5557 8.03105 25.5557C8.03281 25.5557 8.03453 25.5557 8.03629 25.5557C8.26649 25.5536 8.47912 25.4157 8.59737 25.1917L14.7249 13.5874C15.4558 12.2002 15.8422 10.6085 15.8422 8.98441C15.8422 4.03041 12.2888 0 7.92108 0ZM13.592 12.8187L8.02106 23.3688L2.30446 12.9199C1.66052 11.7403 1.31138 10.3795 1.31138 8.98441C1.31138 4.85608 4.28134 1.48742 7.92108 1.48742C11.5608 1.48742 14.5264 4.85608 14.5264 8.98441C14.5264 10.3381 14.2003 11.6642 13.592 12.8187Z" fill="#163561"/>
</svg>
