<svg width="16" height="16" viewBox="0 0 16 16" fill="none" xmlns="http://www.w3.org/2000/svg">
<path d="M12.1256 11.8892C11.1016 11.8892 10.2573 12.7155 10.2573 13.7574C10.2573 14.7813 11.0837 15.6256 12.1256 15.6256C13.1495 15.6256 13.9938 14.7993 13.9938 13.7574C13.9758 12.7335 13.1495 11.8892 12.1256 11.8892Z" fill="#F49100"/>
<path d="M15.4129 2.97901C15.377 2.97901 15.3231 2.96105 15.2692 2.96105H3.95203L3.77239 1.75748C3.66461 0.967072 2.98199 0.374268 2.17362 0.374268H0.718551C0.323348 0.374268 0 0.697615 0 1.09282C0 1.48802 0.323348 1.81137 0.718551 1.81137H2.17362C2.26344 1.81137 2.33529 1.88322 2.35325 1.97304L3.46701 9.55375C3.61072 10.5058 4.43705 11.2244 5.4071 11.2244H12.88C13.8141 11.2244 14.6225 10.5597 14.8201 9.64357L15.9878 3.80535C16.0596 3.42811 15.8081 3.05087 15.4129 2.97901Z" fill="#F49100"/>
<path d="M7.54479 13.6676C7.50887 12.6796 6.68253 11.8892 5.69453 11.8892C4.65263 11.9431 3.86222 12.8053 3.89815 13.8292C3.93408 14.8173 4.74245 15.6077 5.73045 15.6077H5.76638C6.79032 15.5538 7.59868 14.6915 7.54479 13.6676Z" fill="#F49100"/>
</svg>
