<svg width="212" height="46" viewBox="0 0 212 46" fill="none" xmlns="http://www.w3.org/2000/svg">
<path d="M76.302 16.4V29H72.126V19.694H68.292V29H64.116V16.4H76.302ZM85.7661 16.4C86.9301 16.4 87.9441 16.592 88.8081 16.976C89.6721 17.36 90.3381 17.912 90.8061 18.632C91.2741 19.352 91.5081 20.192 91.5081 21.152C91.5081 22.112 91.2741 22.952 90.8061 23.672C90.3381 24.392 89.6721 24.944 88.8081 25.328C87.9441 25.712 86.9301 25.904 85.7661 25.904H83.9481V29H79.7001V16.4H85.7661ZM85.4961 22.628C86.0721 22.628 86.5041 22.502 86.7921 22.25C87.0801 21.986 87.2241 21.62 87.2241 21.152C87.2241 20.684 87.0801 20.324 86.7921 20.072C86.5041 19.808 86.0721 19.676 85.4961 19.676H83.9481V22.628H85.4961ZM100.55 29.288C99.1935 29.288 97.9755 29.006 96.8955 28.442C95.8155 27.878 94.9695 27.098 94.3575 26.102C93.7455 25.094 93.4395 23.96 93.4395 22.7C93.4395 21.44 93.7455 20.312 94.3575 19.316C94.9695 18.308 95.8155 17.522 96.8955 16.958C97.9755 16.394 99.1935 16.112 100.55 16.112C101.906 16.112 103.124 16.394 104.204 16.958C105.284 17.522 106.13 18.308 106.742 19.316C107.354 20.312 107.66 21.44 107.66 22.7C107.66 23.96 107.354 25.094 106.742 26.102C106.13 27.098 105.284 27.878 104.204 28.442C103.124 29.006 101.906 29.288 100.55 29.288ZM100.55 25.85C101.078 25.85 101.552 25.724 101.972 25.472C102.404 25.208 102.746 24.842 102.998 24.374C103.25 23.894 103.376 23.336 103.376 22.7C103.376 22.064 103.25 21.512 102.998 21.044C102.746 20.564 102.404 20.198 101.972 19.946C101.552 19.682 101.078 19.55 100.55 19.55C100.022 19.55 99.5415 19.682 99.1095 19.946C98.6895 20.198 98.3535 20.564 98.1015 21.044C97.8495 21.512 97.7235 22.064 97.7235 22.7C97.7235 23.336 97.8495 23.894 98.1015 24.374C98.3535 24.842 98.6895 25.208 99.1095 25.472C99.5415 25.724 100.022 25.85 100.55 25.85ZM121.608 29L121.572 23.258L118.836 27.866H116.964L114.228 23.456V29H110.358V16.4H113.85L117.954 23.114L121.95 16.4H125.442L125.478 29H121.608ZM139.588 19.694H135.898V29H131.722V19.694H128.032V16.4H139.588V19.694ZM152.635 25.796V29H142.159V16.4H152.401V19.604H146.335V21.08H151.663V24.14H146.335V25.796H152.635ZM159.509 16.382L161.345 19.352L163.181 16.382H168.095L164.009 22.394L168.473 29H163.469L161.345 25.742L159.257 29H154.379L158.807 22.592L154.649 16.382H159.509ZM170.462 16.4H181.388V19.604H174.638V21.062H177.644C179.18 21.062 180.356 21.392 181.172 22.052C182 22.7 182.414 23.642 182.414 24.878C182.414 26.162 181.946 27.17 181.01 27.902C180.074 28.634 178.772 29 177.104 29H170.462V16.4ZM176.816 26.03C177.236 26.03 177.56 25.94 177.788 25.76C178.028 25.58 178.148 25.322 178.148 24.986C178.148 24.338 177.704 24.014 176.816 24.014H174.638V26.03H176.816ZM185.044 16.4H189.22V22.952L193.558 16.4H197.554V29H193.378V22.466L189.058 29H185.044V16.4ZM211.69 19.694H208V29H203.824V19.694H200.134V16.4H211.69V19.694Z" fill="white"/>
<rect width="46" height="46" rx="5" fill="white"/>
</svg>
